<svg id="svg" xmlns="http://www.w3.org/2000/svg" xmlns:xlink="http://www.w3.org/1999/xlink" width="31.88" height="32" viewBox="0, 0, 400,394.3127962085308"><g id="svgg"><path id="path0" d="M317.536 3.066 C 199.068 13.581,126.831 37.914,82.512 82.233 C 27.740 137.005,62.064 201.017,150.782 209.553 C 169.361 211.341,171.625 208.557,161.899 195.888 C 109.701 127.896,176.691 55.781,327.962 17.122 C 361.966 8.432,366.404 6.460,360.946 2.469 C 357.080 -0.358,355.934 -0.342,317.536 3.066 M361.137 51.500 C 310.998 66.645,298.582 72.432,274.661 91.805 C 240.704 119.306,224.467 153.662,219.031 209.515 C 210.146 300.808,158.812 346.214,27.158 379.230 C -13.795 389.500,-9.498 394.755,37.953 392.433 C 205.414 384.238,296.004 324.176,305.323 215.166 C 306.393 202.654,308.032 183.460,308.965 172.512 C 313.483 119.499,331.899 90.081,378.420 61.566 C 411.272 41.430,405.535 38.088,361.137 51.500 " stroke="none" fill="#1cd760" fill-rule="evenodd"></path></g></svg>