<svg id="svg" xmlns="http://www.w3.org/2000/svg" xmlns:xlink="http://www.w3.org/1999/xlink" width="31.88" height="32" viewBox="0, 0, 400,433.5731414868105"><g id="svgg"><path id="path0" d="M269.896 1.010 C 226.023 6.732,203.703 43.303,214.345 92.029 C 215.663 98.064,216.644 103.076,216.524 103.165 C 216.405 103.255,211.340 104.879,205.269 106.775 C 163.483 119.821,132.217 149.834,120.519 188.128 C 100.464 253.773,143.551 317.897,207.674 317.837 C 265.908 317.783,305.102 266.302,293.005 205.755 C 291.794 199.693,290.516 194.774,284.908 174.580 C 277.104 146.479,276.543 148.799,289.856 154.127 C 354.886 180.155,373.761 273.022,326.071 332.305 C 276.433 394.009,185.810 406.369,116.547 360.882 C 40.209 310.748,23.581 196.617,82.600 127.879 C 96.315 111.904,116.096 96.915,137.431 86.330 C 157.563 76.342,163.516 67.098,158.855 53.066 C 152.278 33.262,131.981 33.541,98.801 53.889 C 92.442 57.789,85.073 62.620,84.412 63.321 C 84.149 63.602,80.001 66.941,75.195 70.741 C 66.501 77.618,51.616 92.450,46.387 99.447 C 44.879 101.466,43.132 103.662,42.505 104.326 C 40.862 106.068,28.656 124.566,26.529 128.537 C -41.381 255.330,30.182 406.551,169.784 431.252 C 258.380 446.928,351.114 401.492,384.315 326.139 C 385.129 324.293,386.393 321.487,387.124 319.904 C 427.529 232.459,373.331 121.835,280.878 103.043 C 262.961 99.401,264.259 100.928,259.341 77.700 C 255.802 60.984,257.792 54.435,268.276 48.291 C 277.416 42.934,286.816 44.946,297.876 54.625 C 310.174 65.387,321.235 66.315,331.326 57.432 C 357.730 34.190,315.177 -4.894,269.896 1.010 M234.434 165.707 C 252.800 234.056,252.944 243.060,235.944 260.015 C 202.519 293.351,151.371 254.286,163.966 205.042 C 171.030 177.420,201.924 150.614,228.838 148.752 C 229.400 148.713,231.918 156.343,234.434 165.707 " stroke="none" fill="#3c82f6" fill-rule="evenodd"></path></g></svg>